{"title":"Sirens (1993) BRRIP 1080P","uid":10155656,"size":4185518263,"categoryP":"video","categoryS":"hd___movies","magnet":"?xt=urn:btih:b23b17d3a700ce070d8605de2b4b4470094f49a5&amp;dn=Sirens+%281993%29+BRRIP+1080P&amp;tr=udp%3A%2F%2Ftracker.openbittorrent.com%3A80&amp;tr=udp%3A%2F%2Fopen.demonii.com%3A1337&amp;tr=udp%3A%2F%2Ftracker.coppersurfer.tk%3A6969&amp;tr=udp%3A%2F%2Fexodus.desync.com%3A6969","seeders":2,"leechers":1,"uploader":"jmanwf","files":-1,"time":1400113579,"description":"Format : MPEG-4\nFormat profile : Base Media / Version 2\nCodec ID : mp42\nFile size : 3.85 GiB\nDuration : 1h 30mn\nOverall bit rate mode : Variable\nOverall bit rate : 6 116 Kbps\nEncoded date : UTC 2014-05-15 04:31:01\nTagged date : UTC 2014-05-15 06:28:37\nWriting application : HandBrake 0.9.9 2013052900\n\nVideo\nID : 1\nFormat : AVC\nFormat/Info : Advanced Video Codec\nFormat profile : &lt;a class=&quot;__cf_email__&quot; href=&quot;/cdn-cgi/l/email-protection&quot; data-cfemail=&quot;044c6d636c4448302a34&quot;&gt;[email&amp;#160;protected]&lt;/a&gt;&lt;script cf-hash='f9e31' type=&quot;text/javascript&quot;&gt;\n/* &lt;![CDATA[ */!function(){try{var t=&quot;currentScript&quot;in document?document.currentScript:function(){for(var t=document.getElementsByTagName(&quot;script&quot;),e=t.length;e--;)if(t[e].getAttribute(&quot;cf-hash&quot;))return t[e]}();if(t&amp;&amp;t.previousSibling){var e,r,n,i,c=t.previousSibling,a=c.getAttribute(&quot;data-cfemail&quot;);if(a){for(e=&quot;&quot;,r=parseInt(a.substr(0,2),16),n=2;a.length-n;n+=2)i=parseInt(a.substr(n,2),16)^r,e+=String.fromCharCode(i);e=document.createTextNode(e),c.parentNode.replaceChild(e,c)}}}catch(u){}}();/* ]]&gt; */&lt;/script&gt;\nFormat settings, CABAC : Yes\nFormat settings, ReFrames : 4 frames\nCodec ID : avc1\nCodec ID/Info : Advanced Video Coding\nDuration : 1h 30mn\nBit rate : 6 000 Kbps\nWidth : 1 920 pixels\nHeight : 1 080 pixels\nDisplay aspect ratio : 16:9\nFrame rate mode : Constant\nFrame rate : 25.000 fps\nColor space : YUV\nChroma subsampling : 4:2:0\nBit depth : 8 bits\nScan type : Progressive\nBits/(Pixel*Frame) : 0.116\nStream size : 3.73 GiB (97%)\nWriting library : x264 core 130 r2273 b3065e6\nEncoded date : UTC 2014-05-15 04:31:01\nTagged date : UTC 2014-05-15 06:28:37\nColor primaries : BT.709\nTransfer characteristics : BT.709\nMatrix coefficients : BT.709\n\nAudio #1\nID : 2\nFormat : AAC\nFormat/Info : Advanced Audio Codec\nFormat profile : LC\nCodec ID : 40\nDuration : 1h 30mn\nBit rate mode : Variable\nBit rate : 96.0 Kbps\nMaximum bit rate : 117 Kbps\nChannel(s) : 2 channels\nChannel positions : Front: L R\nSampling rate : 48.0 KHz\nCompression mode : Lossy\nStream size : 61.8 MiB (2%)\nLanguage : English\nEncoded date : UTC 2014-05-15 04:31:01\nTagged date : UTC 2014-05-15 06:28:36\n\nAudio #2\nID : 3\nFormat : AAC\nFormat/Info : Advanced Audio Codec\nFormat profile : LC\nCodec ID : 40\nDuration : 1h 30mn\nBit rate mode : Variable\nBit rate : 96.0 Kbps\nMaximum bit rate : 123 Kbps\nChannel(s) : 2 channels\nChannel positions : Front: L R\nSampling rate : 48.0 KHz\nCompression mode : Lossy\nStream size : 61.8 MiB (2%)\nLanguage : English\nEncoded date : UTC 2014-05-15 04:31:01\nTagged date : UTC 2014-05-15 06:28:36\n\n\nStoryline\n\nA young reverend and his wife are on the way from England to Australia to minister to their flock. The bishop asks him to visit an eccentric artist prone to sexual depictions and requests that he voluntarily withdraw a controversial work call &quot;Crucified Venus&quot; from his show. The minister, who considers himself a progressive, is shocked at the amoral atmosphere surrounding the painter, his wife, and the three models living at his estate. The minister's wife is troubled also, and has to deal with latent sexual urges while trying to remain loyal to her husband.\n\n\n\n\n\nINCLUDES DIRECTORIES COMMENTARY\n\n\n\n\n &lt;a href=&quot;\nhttp://www.imdb.com/title/tt0111201/&quot; rel=&quot;nofollow&quot; target=&quot;_NEW&quot;&gt;\nhttp://www.imdb.com/title/tt0111201/&lt;/a&gt;","torrent":{"xt":"urn:btih:b23b17d3a700ce070d8605de2b4b4470094f49a5","amp;dn":"Sirens+%281993%29+BRRIP+1080P","amp;tr":["udp%3A%2F%2Ftracker.openbittorrent.com%3A80","udp%3A%2F%2Fopen.demonii.com%3A1337","udp%3A%2F%2Ftracker.coppersurfer.tk%3A6969","udp%3A%2F%2Fexodus.desync.com%3A6969"],"infoHash":"b23b17d3a700ce070d8605de2b4b4470094f49a5","infoHashBuffer":{"type":"Buffer","data":[178,59,23,211,167,0,206,7,13,134,5,222,43,75,68,112,9,79,73,165]},"announce":[],"urlList":[]}}